<?xml version="1.0" encoding="utf-8"?>
<!-- Generator: Adobe Illustrator 23.0.5, SVG Export Plug-In . SVG Version: 6.00 Build 0)  -->
<svg version="1.1" id="Layer_1" xmlns="http://www.w3.org/2000/svg" xmlns:xlink="http://www.w3.org/1999/xlink" x="0px" y="0px"
	 viewBox="0 0 750 500" style="enable-background:new 0 0 750 500;" xml:space="preserve">
<style type="text/css">
	.st0{display:none;}
	.st1{display:inline;fill:#F7C5D5;}
	.st2{clip-path:url(#SVGID_2_);fill:#E6BDDA;}
	.st3{clip-path:url(#SVGID_4_);}
	.st4{fill:none;stroke:#FFFFFF;stroke-width:2;stroke-miterlimit:10;}
	.st5{clip-path:url(#SVGID_6_);fill:#E6BDDA;}
	.st6{clip-path:url(#SVGID_8_);}
	.st7{fill:#FFFFFF;}
	.st8{clip-path:url(#SVGID_10_);}
	.st9{clip-path:url(#SVGID_12_);fill:#7887DB;}
	.st10{clip-path:url(#SVGID_14_);fill:#7887DB;}
	.st11{clip-path:url(#SVGID_16_);fill:#B5A5E8;}
	.st12{clip-path:url(#SVGID_18_);fill:#FFFFFF;}
	.st13{clip-path:url(#SVGID_20_);fill:#D6B5DE;}
	.st14{clip-path:url(#SVGID_22_);fill:#FFFFFF;}
	.st15{clip-path:url(#SVGID_24_);fill:#D6B5DE;}
	.st16{clip-path:url(#SVGID_26_);fill:#D6B5DE;}
	.st17{clip-path:url(#SVGID_28_);fill:#FFFFFF;}
	.st18{clip-path:url(#SVGID_30_);}
	.st19{clip-path:url(#SVGID_32_);}
	.st20{fill:none;stroke:#7887DB;stroke-miterlimit:10;}
	.st21{fill:none;stroke:#FFFFFF;stroke-miterlimit:10;}
	.st22{fill:none;stroke:#FFFFFF;stroke-width:1.3;stroke-miterlimit:10;}
	.st23{fill:#B5A5E8;}
	.st24{fill:#7887DB;}
</style>
<g id="BACKGROUND" class="st0">
	<rect id="XMLID_19_" y="0" class="st1" width="750" height="500"/>
</g>
<g id="OBJECTS">
	<g id="XMLID_16_">
		<g id="XMLID_23_">
			<g>
				<defs>
					
						<rect id="SVGID_1_" x="37.7" y="-267.3" transform="matrix(0.7071 -0.7071 0.7071 0.7071 133.0991 286.7978)" width="750" height="500"/>
				</defs>
				<clipPath id="SVGID_2_">
					<use xlink:href="#SVGID_1_"  style="overflow:visible;"/>
				</clipPath>
				
					<rect id="XMLID_15_" x="-143.1" y="-35.8" transform="matrix(0.7071 -0.7071 0.7071 0.7071 -29.1613 71.1347)" class="st2" width="428.8" height="213.2"/>
			</g>
			<g>
				<defs>
					<rect id="SVGID_3_" y="0" width="750" height="500"/>
				</defs>
				<clipPath id="SVGID_4_">
					<use xlink:href="#SVGID_3_"  style="overflow:visible;"/>
				</clipPath>
				<g id="XMLID_40_" class="st3">
					<circle id="XMLID_56_" class="st4" cx="13.8" cy="10.9" r="81.5"/>
					<ellipse id="XMLID_53_" class="st4" cx="13.8" cy="10.9" rx="109.7" ry="109.7"/>
					<path id="XMLID_50_" class="st4" d="M13.8,106.5c-52.7,0-95.6-42.9-95.6-95.6s42.9-95.6,95.6-95.6s95.6,42.9,95.6,95.6
						S66.5,106.5,13.8,106.5z"/>
					<circle id="XMLID_47_" class="st4" cx="13.8" cy="10.9" r="81.5"/>
					<circle id="XMLID_44_" class="st4" cx="13.8" cy="10.9" r="66.4"/>
					<circle id="XMLID_41_" class="st4" cx="13.8" cy="10.9" r="52.6"/>
				</g>
			</g>
			<g>
				<defs>
					
						<rect id="SVGID_5_" x="-60.8" y="320.3" transform="matrix(0.7071 -0.7071 0.7071 0.7071 -311.2141 389.1917)" width="750" height="500"/>
				</defs>
				<clipPath id="SVGID_6_">
					<use xlink:href="#SVGID_5_"  style="overflow:visible;"/>
				</clipPath>
				
					<rect id="XMLID_21_" x="601.8" y="387.8" transform="matrix(0.7071 -0.7071 0.7071 0.7071 -127.6996 658.6417)" class="st5" width="258.9" height="191.4"/>
			</g>
			<g>
				<defs>
					<rect id="SVGID_7_" y="0" width="750" height="500"/>
				</defs>
				<clipPath id="SVGID_8_">
					<use xlink:href="#SVGID_7_"  style="overflow:visible;"/>
				</clipPath>
				<g id="XMLID_42_" class="st6">
					<g id="XMLID_43_">
						<g id="XMLID_45_">
							<path id="XMLID_46_" class="st7" d="M432.9,50.9h-5.1V56H423v-5.1h-5.1v-4.6h5.1v-5.2h4.8v5.2h5.1V50.9z"/>
						</g>
					</g>
					<g id="XMLID_48_">
						<g id="XMLID_49_">
							<path id="XMLID_51_" class="st7" d="M447.6,36.2h-5.1v5.1h-4.8v-5.1h-5.1v-4.6h5.1v-5.2h4.8v5.2h5.1V36.2z"/>
						</g>
					</g>
					<g id="XMLID_67_">
						<g id="XMLID_68_">
							<path id="XMLID_69_" class="st7" d="M462.3,21.5h-5.1v5.1h-4.8v-5.1h-5.1v-4.6h5.1v-5.2h4.8v5.2h5.1V21.5z"/>
						</g>
					</g>
					<g id="XMLID_71_">
						<g id="XMLID_72_">
							<path id="XMLID_73_" class="st7" d="M477,6.7h-5v5.1h-4.8V6.7h-5.1V2.2h5.1V-3h4.8v5.2h5.1v4.5H477z"/>
						</g>
					</g>
					<g id="XMLID_75_">
						<g id="XMLID_76_">
							<path id="XMLID_77_" class="st7" d="M491.8-8h-5.1v5.1h-4.8V-8h-5.1v-4.6h5.1v-5.2h4.8v5.2h5.1V-8z"/>
						</g>
					</g>
				</g>
			</g>
			<g>
				<defs>
					<rect id="SVGID_9_" y="0" width="750" height="500"/>
				</defs>
				<clipPath id="SVGID_10_">
					<use xlink:href="#SVGID_9_"  style="overflow:visible;"/>
				</clipPath>
				<g id="XMLID_122_" class="st8">
					<g id="XMLID_140_">
						<g id="XMLID_141_">
							<path id="XMLID_143_" class="st7" d="M728,385.4h-5v5.1h-4.8v-5.1h-5.1v-4.6h5.1v-5.2h4.8v5.2h5.1L728,385.4L728,385.4z"/>
						</g>
					</g>
					<g id="XMLID_135_">
						<g id="XMLID_136_">
							<path id="XMLID_137_" class="st7" d="M742.8,370.7h-5.1v5.1h-4.8v-5.1h-5.1v-4.6h5.1v-5.2h4.8v5.2h5.1V370.7z"/>
						</g>
					</g>
					<g id="XMLID_131_">
						<g id="XMLID_132_">
							<path id="XMLID_133_" class="st7" d="M757.5,355.9h-5.1v5.1h-4.8v-5.1h-5.1v-4.6h5.1v-5.2h4.8v5.2h5.1V355.9z"/>
						</g>
					</g>
					<g id="XMLID_127_">
						<g id="XMLID_128_">
							<path id="XMLID_129_" class="st7" d="M772.2,341.2h-5.1v5.1h-4.8v-5.1h-5.1v-4.6h5.1v-5.2h4.8v5.2h5.1V341.2z"/>
						</g>
					</g>
					<g id="XMLID_123_">
						<g id="XMLID_124_">
							<path id="XMLID_125_" class="st7" d="M786.9,326.5h-5.1v5.1H777v-5.1h-5v-4.6h5.1v-5.2h4.8v5.2h5.1L786.9,326.5L786.9,326.5z
								"/>
						</g>
					</g>
				</g>
			</g>
			<g>
				<defs>
					<rect id="SVGID_11_" y="0" width="750" height="500"/>
				</defs>
				<clipPath id="SVGID_12_">
					<use xlink:href="#SVGID_11_"  style="overflow:visible;"/>
				</clipPath>
				<path id="XMLID_147_" class="st9" d="M43.1,557.5L43.1,557.5c3.2,3.2,8.5,3.2,11.7,0l67.5-67.5c1.2-1.2,3.3-1.2,4.5,0l0,0
					c1.2,1.2,1.2,3.3,0,4.5L-11.1,632.4c-3,3-3,7.9,0,10.9l0,0c3,3,7.9,3,10.9,0l101.6-101.6c3-3,7.8-3,10.7,0l0,0c3,3,7.8,3,10.7,0
					l80.4-80.4c2.5-2.5,6.7-2.5,9.2,0l0,0c2.5,2.5,2.5,6.7,0,9.2L193,490c-2.7,2.7-2.7,7.1,0,9.8l0,0c2.7,2.7,7.1,2.7,9.8,0
					l87.8-87.8c3.4-3.4,3.4-9,0-12.4l0,0c-3.4-3.4-9-3.4-12.4,0L242.8,435c-2.6,2.6-6.8,2.6-9.4,0l0,0c-2.6-2.6-2.6-6.8,0-9.4
					l19.2-19.2c4.3-4.3,4.3-11.2,0-15.4l0,0c-4.3-4.3-11.2-4.3-15.4,0l-16.7,16.7c-1.5,1.5-3.8,1.5-5.3,0l0,0
					c-1.5-1.5-1.5-3.8,0-5.3l60-60c4.4-4.4,4.4-11.7,0-16.1l0,0c-4.5-4.5-11.7-4.4-16.2,0.1L43,545.8
					C39.9,549.1,39.9,554.3,43.1,557.5z"/>
			</g>
			<g>
				<defs>
					<rect id="SVGID_13_" y="0" width="750" height="500"/>
				</defs>
				<clipPath id="SVGID_14_">
					<use xlink:href="#SVGID_13_"  style="overflow:visible;"/>
				</clipPath>
				<path id="XMLID_150_" class="st10" d="M540.1,472.8l-54.8,54.8c-2.8,2.8-2.8,7.3,0,10.1l0,0c2.8,2.8,7.3,2.8,10.1,0l54.8-54.8
					c2.9-2.9,2.8-7.5-0.2-10.2l0,0C547.2,470,542.8,470,540.1,472.8z"/>
			</g>
			<g>
				<defs>
					<rect id="SVGID_15_" y="0" width="750" height="500"/>
				</defs>
				<clipPath id="SVGID_16_">
					<use xlink:href="#SVGID_15_"  style="overflow:visible;"/>
				</clipPath>
				<path id="XMLID_153_" class="st11" d="M254.4-68.8L115,70.6c-2.8,2.8-2.8,7.3,0,10.1l0,0c2.8,2.8,7.3,2.8,10.1,0L264.5-58.7
					c2.9-2.9,2.8-7.5-0.2-10.2l0,0C261.5-71.6,257.1-71.5,254.4-68.8z"/>
			</g>
			<g>
				<defs>
					<rect id="SVGID_17_" y="0" width="750" height="500"/>
				</defs>
				<clipPath id="SVGID_18_">
					<use xlink:href="#SVGID_17_"  style="overflow:visible;"/>
				</clipPath>
				<path id="XMLID_167_" class="st12" d="M257.8,527.5L257.8,527.5c-3.4-3.4-3.4-8.8,0-12.2L330,443c3.5-3.5,9.3-3.5,12.8,0l0,0
					c3.5,3.5,3.5,9.3,0,12.8l-47.6,47.6c-3.8,3.8-3.8,9.9,0,13.7l0,0c3.8,3.8,3.8,9.9,0,13.7l-59,59c-4.1,4.1-10.6,4.1-14.7,0l0,0
					c-4.1-4.1-4-10.7,0.1-14.8l36.1-35.3C261.1,536.4,261.1,530.9,257.8,527.5z"/>
			</g>
			<g>
				<defs>
					<rect id="SVGID_19_" y="0" width="750" height="500"/>
				</defs>
				<clipPath id="SVGID_20_">
					<use xlink:href="#SVGID_19_"  style="overflow:visible;"/>
				</clipPath>
				<path id="XMLID_168_" class="st13" d="M715.3,292.4L715.3,292.4c2.7,2.7,7.1,2.7,9.9,0l26.6-26.6c1.4-1.4,3.7-1.4,5.2,0l0,0
					c1.4,1.4,1.4,3.7,0,5.2l-99.2,99c-3.2,3.2-3.2,8.3,0,11.5l0,0c3.2,3.2,8.3,3.2,11.5,0L816.8,234c3-3,3-7.8,0-10.7l0,0
					c-3-3-7.8-3-10.7,0l-21.3,21.3c-1.5,1.5-4,1.5-5.6,0l0,0c-1.5-1.5-1.5-4,0-5.6l65.6-65.6c2.7-2.7,2.7-7,0-9.6l0,0
					c-2.6-2.6-6.9-2.7-9.6,0L715.3,282.5C712.6,285.2,712.6,289.6,715.3,292.4z"/>
			</g>
			<g>
				<defs>
					<rect id="SVGID_21_" y="0" width="750" height="500"/>
				</defs>
				<clipPath id="SVGID_22_">
					<use xlink:href="#SVGID_21_"  style="overflow:visible;"/>
				</clipPath>
				<path id="XMLID_169_" class="st14" d="M350.1-14.9l-54.8,54.8c-2.8,2.8-2.8,7.3,0,10.1l0,0c2.8,2.8,7.3,2.8,10.1,0l54.8-54.8
					c2.9-2.9,2.8-7.5-0.2-10.2l0,0C357.2-17.7,352.8-17.6,350.1-14.9z"/>
			</g>
			<g>
				<defs>
					<rect id="SVGID_23_" y="0" width="750" height="500"/>
				</defs>
				<clipPath id="SVGID_24_">
					<use xlink:href="#SVGID_23_"  style="overflow:visible;"/>
				</clipPath>
				<path id="XMLID_175_" class="st15" d="M497.2,69.9L497.2,69.9c3.7,3.7,9.8,3.7,13.6,0l60.4-60.4c2.8-2.8,7.4-2.8,10.2,0l0,0
					c2.8,2.8,2.8,7.4,0,10.2l-151,151c-3.3,3.3-3.3,8.7,0,12l0,0c3.3,3.3,8.7,3.3,12,0l46.8-46.8c3-3,7.9-3,10.9,0l0,0
					c3,3,7.9,3,10.9,0l76.6-76.6c3.1-3.1,8.1-3.1,11.1,0l0,0c3.1,3.1,3.1,8.1,0,11.1l-90.9,90.9c-3.5,3.5-3.5,9.1,0,12.6l0,0
					c3.5,3.5,9.1,3.5,12.6,0L676,18.3c2.3-2.3,6.1-2.3,8.5,0l0,0c2.3,2.3,2.3,6.1,0,8.5l-22.9,22.9c-3.2,3.2-3.2,8.3,0,11.5l0,0
					c3.2,3.2,8.3,3.2,11.5,0L723,11.3c2.7-2.7,7.1-2.7,9.8,0l0,0c2.7,2.7,2.7,7.1,0,9.8l-88.6,88.6c-3.4,3.4-3.4,9,0,12.4l0,0
					c3.4,3.4,9,3.4,12.4,0l174-174c3.9-3.9,3.9-10.3,0-14.3l0,0c-3.9-3.9-10.3-3.9-14.3,0L776.9-27c-3.9,3.9-10.1,3.9-14,0l0,0
					c-3.9-3.9-3.9-10.1,0-14l19.7-19.7c4.4-4.4,4.4-11.4,0-15.8l0,0c-4.4-4.4-11.4-4.4-15.8,0L753.3-63c-3.6,3.6-9.4,3.6-13,0l0,0
					c-3.6-3.6-3.6-9.4,0-13l124.9-124.9c4.9-4.9,4.9-12.9,0-17.8l0,0c-4.9-4.9-12.9-4.9-17.8,0L699.8-71c-2.6,2.6-6.7,2.6-9.3,0l0,0
					c-2.6-2.6-2.6-6.7,0-9.3l45.1-45.1c4.1-4.1,4.1-10.8,0-15l0,0c-4.1-4.1-10.8-4.1-15,0l-55.3,55.3c-3.8,3.8-10,3.8-13.8,0l0,0
					c-3.8-3.8-10-3.8-13.8,0L497.1,56.4C493.4,60.1,493.4,66.2,497.2,69.9z"/>
			</g>
			<g>
				<defs>
					<rect id="SVGID_25_" y="0" width="750" height="500"/>
				</defs>
				<clipPath id="SVGID_26_">
					<use xlink:href="#SVGID_25_"  style="overflow:visible;"/>
				</clipPath>
				<path id="XMLID_178_" class="st16" d="M-206.9,477.5L-206.9,477.5c3.7,3.7,9.8,3.7,13.6,0l60.4-60.4c2.8-2.8,7.4-2.8,10.2,0l0,0
					c2.8,2.8,2.8,7.4,0,10.2l-151,151c-3.3,3.3-3.3,8.7,0,12l0,0c3.3,3.3,8.7,3.3,12,0l46.8-46.8c3-3,7.9-3,10.9,0l0,0
					c3,3,7.9,3,10.9,0l76.6-76.6c3.1-3.1,8.1-3.1,11.1,0l0,0c3.1,3.1,3.1,8.1,0,11.1l-90.9,90.9c-3.5,3.5-3.5,9.1,0,12.6l0,0
					c3.5,3.5,9.1,3.5,12.6,0l155.6-155.6c2.3-2.3,6.1-2.3,8.5,0l0,0c2.3,2.3,2.3,6.1,0,8.5l-22.9,22.9c-3.2,3.2-3.2,8.3,0,11.5l0,0
					c3.2,3.2,8.3,3.2,11.5,0l49.9-49.9c2.7-2.7,7.1-2.7,9.8,0l0,0c2.7,2.7,2.7,7.1,0,9.8L-60,517.2c-3.4,3.4-3.4,9,0,12.4l0,0
					c3.4,3.4,9,3.4,12.4,0l174-174c3.9-3.9,3.9-10.3,0-14.3l0,0c-3.9-3.9-10.3-3.9-14.3,0l-39.3,39.3c-3.9,3.9-10.1,3.9-14,0l0,0
					c-3.9-3.9-3.9-10.1,0-14l19.7-19.7c4.4-4.4,4.4-11.4,0-15.8l0,0c-4.4-4.4-11.4-4.4-15.8,0l-13.5,13.5c-3.6,3.6-9.4,3.6-13,0l0,0
					c-3.6-3.6-3.6-9.4,0-13L161,206.7c4.9-4.9,4.9-12.9,0-17.8l0,0c-4.9-4.9-12.9-4.9-17.8,0L-4.3,336.5c-2.6,2.6-6.7,2.6-9.3,0l0,0
					c-2.6-2.6-2.6-6.7,0-9.3l45.1-45.1c4.1-4.1,4.1-10.8,0-15l0,0c-4.1-4.1-10.8-4.1-15,0l-55.3,55.3c-3.8,3.8-10,3.8-13.8,0l0,0
					c-3.8-3.8-10-3.8-13.8,0L-207,463.9C-210.7,467.7-210.7,473.7-206.9,477.5z"/>
			</g>
			<g>
				<defs>
					<rect id="SVGID_27_" y="0" width="750" height="500"/>
				</defs>
				<clipPath id="SVGID_28_">
					<use xlink:href="#SVGID_27_"  style="overflow:visible;"/>
				</clipPath>
				<path id="XMLID_186_" class="st17" d="M659.7,231.6L659.7,231.6c-5.5-5.5-14.5-5.5-20,0l0,0c-3.7,3.7-9.8,3.7-13.6,0l-2.1-2.1
					c-3.7-3.7-3.7-9.8,0-13.6L741.7,98.1c4-4,10.4-4,14.4,0l0,0c4,4,4,10.4,0,14.4L725,143.6c-2.3,2.3-2.3,6.2,0,8.5l0,0
					c2.3,2.3,6.2,2.3,8.5,0L850.2,35.4c3.4-3.4,9-3.4,12.4,0l0,0c3.4,3.4,3.4,9,0,12.4l-120,120c-4.7,4.7-4.7,12.3,0,16.9l0,0
					c4.7,4.7,4.7,12.3,0,16.9L640.8,303.5c-4.5,4.5-11.9,4.5-16.4,0l0,0c-4.5-4.5-4.5-11.8,0-16.4l35.4-35.6
					C665.2,246,665.2,237.1,659.7,231.6z"/>
			</g>
			<g>
				<defs>
					<rect id="SVGID_29_" y="0" width="750" height="500"/>
				</defs>
				<clipPath id="SVGID_30_">
					<use xlink:href="#SVGID_29_"  style="overflow:visible;"/>
				</clipPath>
				<g id="XMLID_157_" class="st18">
					<path id="XMLID_181_" class="st7" d="M417.9,471.3c-0.4-0.3-0.7-0.6-1.1-0.9l-61,61c0.3,0.4,0.6,0.7,0.9,1.1L417.9,471.3z"/>
					<path id="XMLID_180_" class="st7" d="M403,463.4c-0.5-0.1-1-0.3-1.5-0.4l-53.1,53.1c0.1,0.5,0.3,1,0.4,1.5L403,463.4z"/>
					<path id="XMLID_179_" class="st7" d="M413.5,468.1c-0.4-0.2-0.8-0.5-1.2-0.7l-59.5,59.5c0.2,0.4,0.5,0.8,0.7,1.2L413.5,468.1z"
						/>
					<path id="XMLID_177_" class="st7" d="M408.5,465.5c-0.5-0.2-0.9-0.4-1.4-0.6l-56.9,56.9c0.2,0.5,0.4,0.9,0.6,1.4L408.5,465.5z"
						/>
					<path id="XMLID_176_" class="st7" d="M396.8,462.1c-0.6-0.1-1.2-0.2-1.7-0.2l-47.8,47.8c0.1,0.6,0.1,1.2,0.2,1.7L396.8,462.1z"
						/>
					<path id="XMLID_174_" class="st7" d="M421.4,474.4c-0.2-0.2-0.3-0.3-0.5-0.5l-61.6,61.6c0.2,0.2,0.3,0.3,0.5,0.5
						s0.3,0.3,0.5,0.5l61.6-61.6C421.7,474.7,421.6,474.6,421.4,474.4z"/>
					<path id="XMLID_173_" class="st7" d="M389.6,461.7c-0.7,0-1.4,0-2,0.1l-40.5,40.5c0,0.7-0.1,1.4-0.1,2L389.6,461.7z"/>
					<path id="XMLID_172_" class="st7" d="M348.1,495.6l32.9-32.9c-0.9,0.2-1.8,0.4-2.6,0.7L348.7,493
						C348.5,493.9,348.3,494.8,348.1,495.6z"/>
					<path id="XMLID_171_" class="st7" d="M434.1,508.2c0-0.7,0.1-1.4,0.1-2l-42.6,42.6c0.7,0,1.4,0,2-0.1L434.1,508.2z"/>
					<path id="XMLID_170_" class="st7" d="M433.9,500.8c-0.1-0.6-0.1-1.2-0.2-1.7l-49.3,49.3c0.6,0.1,1.2,0.2,1.7,0.2L433.9,500.8z"
						/>
					<path id="XMLID_166_" class="st7" d="M368.4,467.7c-3.1,1.8-6,4.1-8.7,6.7c-2.7,2.7-4.9,5.6-6.7,8.7L368.4,467.7z"/>
					<path id="XMLID_165_" class="st7" d="M432.4,517.4c0.3-0.9,0.5-1.7,0.7-2.6l-32.9,32.9c0.9-0.2,1.8-0.4,2.6-0.7L432.4,517.4z"
						/>
					<path id="XMLID_164_" class="st7" d="M412.7,542.8c3.1-1.8,6-4.1,8.7-6.7c2.7-2.7,4.9-5.6,6.7-8.7L412.7,542.8z"/>
					<path id="XMLID_163_" class="st7" d="M428.4,483.6c-0.2-0.4-0.5-0.8-0.7-1.2l-60,60c0.4,0.2,0.8,0.5,1.2,0.7L428.4,483.6z"/>
					<path id="XMLID_161_" class="st7" d="M425.4,479c-0.3-0.4-0.6-0.7-0.9-1.1l-61.3,61.3c0.4,0.3,0.7,0.6,1.1,0.9L425.4,479z"/>
					<path id="XMLID_160_" class="st7" d="M432.8,494.3c-0.1-0.5-0.3-1-0.4-1.5L378.2,547c0.5,0.2,1,0.3,1.5,0.4L432.8,494.3z"/>
					<path id="XMLID_158_" class="st7" d="M430.9,488.6c-0.2-0.5-0.4-0.9-0.6-1.4L372.6,545c0.4,0.2,0.9,0.4,1.4,0.6L430.9,488.6z"
						/>
				</g>
			</g>
			<g>
				<defs>
					<rect id="SVGID_31_" y="0" width="750" height="500"/>
				</defs>
				<clipPath id="SVGID_32_">
					<use xlink:href="#SVGID_31_"  style="overflow:visible;"/>
				</clipPath>
				<g id="XMLID_182_" class="st19">
					<path id="XMLID_203_" class="st7" d="M638.6-42.3c-0.4-0.4-0.9-0.7-1.4-1.1l-76.1,76.1c0.3,0.5,0.7,0.9,1.1,1.4L638.6-42.3z"/>
					<path id="XMLID_202_" class="st7" d="M620-52.1c-0.6-0.2-1.3-0.4-1.9-0.5L552,13.6c0.2,0.6,0.3,1.3,0.5,1.9L620-52.1z"/>
					<path id="XMLID_201_" class="st7" d="M633.1-46.2c-0.5-0.3-1-0.6-1.5-0.9L557.4,27c0.3,0.5,0.6,1,0.9,1.5L633.1-46.2z"/>
					<path id="XMLID_200_" class="st7" d="M626.9-49.5c-0.6-0.3-1.1-0.5-1.7-0.7l-70.9,70.9c0.2,0.6,0.5,1.1,0.7,1.7L626.9-49.5z"/>
					<path id="XMLID_199_" class="st7" d="M612.3-53.8c-0.7-0.1-1.4-0.2-2.2-0.3L550.5,5.6c0.1,0.7,0.2,1.4,0.3,2.2L612.3-53.8z"/>
					<path id="XMLID_198_" class="st7" d="M643-38.4c-0.2-0.2-0.4-0.4-0.6-0.6l-76.8,76.8c0.2,0.2,0.4,0.4,0.6,0.6
						c0.2,0.2,0.4,0.4,0.6,0.6l76.8-76.8C643.4-38,643.2-38.2,643-38.4z"/>
					<path id="XMLID_197_" class="st7" d="M603.4-54.3c-0.8,0-1.7,0.1-2.5,0.1L550.4-3.7c-0.1,0.8-0.1,1.7-0.1,2.5L603.4-54.3z"/>
					<path id="XMLID_194_" class="st7" d="M551.6-12l41-41c-1.1,0.2-2.2,0.5-3.3,0.8l-36.9,36.9C552.1-14.1,551.8-13,551.6-12z"/>
					<path id="XMLID_193_" class="st7" d="M658.7,3.7c0.1-0.8,0.1-1.7,0.1-2.5l-53.1,53.1c0.8,0,1.7-0.1,2.5-0.1L658.7,3.7z"/>
					<path id="XMLID_191_" class="st7" d="M658.6-5.6c-0.1-0.7-0.2-1.4-0.3-2.2l-61.5,61.5c0.7,0.1,1.4,0.2,2.2,0.3L658.6-5.6z"/>
					<path id="XMLID_190_" class="st7" d="M577-46.8c-3.9,2.3-7.5,5.1-10.8,8.4s-6.1,7-8.4,10.8L577-46.8z"/>
					<path id="XMLID_189_" class="st7" d="M656.7,15.2c0.3-1.1,0.6-2.2,0.8-3.3l-41,41c1.1-0.2,2.2-0.5,3.3-0.8L656.7,15.2z"/>
					<path id="XMLID_188_" class="st7" d="M632.1,46.8c3.9-2.3,7.5-5.1,10.8-8.4s6.1-7,8.4-10.8L632.1,46.8z"/>
					<path id="XMLID_187_" class="st7" d="M651.7-27c-0.3-0.5-0.6-1-0.9-1.5L576,46.2c0.5,0.3,1,0.6,1.5,0.9L651.7-27z"/>
					<path id="XMLID_185_" class="st7" d="M647.9-32.7c-0.3-0.5-0.7-0.9-1.1-1.4l-76.4,76.4c0.4,0.4,0.9,0.7,1.4,1.1L647.9-32.7z"/>
					<path id="XMLID_184_" class="st7" d="M657.1-13.6c-0.2-0.6-0.3-1.3-0.5-1.9L589,52.1c0.6,0.2,1.3,0.4,1.9,0.5L657.1-13.6z"/>
					<path id="XMLID_183_" class="st7" d="M654.8-20.7c-0.2-0.6-0.5-1.1-0.7-1.7l-71.9,71.9c0.6,0.3,1.1,0.5,1.7,0.7L654.8-20.7z"/>
				</g>
			</g>
		</g>
		<g id="XMLID_14_">
			<g id="XMLID_26_">
				<path id="XMLID_35_" class="st20" d="M646,429.3c0,17.9-14.5,32.4-32.4,32.4s-32.4-14.5-32.4-32.4s14.5-32.4,32.4-32.4"/>
				<path id="XMLID_17_" class="st21" d="M129,232.3c0,17.9-14.5,32.4-32.4,32.4s-32.4-14.5-32.4-32.4s14.5-32.4,32.4-32.4"/>
				<g id="XMLID_27_">
					<line id="XMLID_34_" class="st21" x1="523" y1="447.8" x2="538.2" y2="432.6"/>
					<line id="XMLID_33_" class="st21" x1="536.3" y1="447.8" x2="551.5" y2="432.6"/>
					<line id="XMLID_32_" class="st21" x1="549.6" y1="447.8" x2="564.8" y2="432.6"/>
					<line id="XMLID_31_" class="st21" x1="562.8" y1="447.8" x2="578" y2="432.6"/>
					<line id="XMLID_30_" class="st21" x1="576.1" y1="447.8" x2="591.3" y2="432.6"/>
					<line id="XMLID_29_" class="st21" x1="589.3" y1="447.8" x2="604.5" y2="432.6"/>
					<line id="XMLID_28_" class="st21" x1="602.6" y1="447.8" x2="617.8" y2="432.6"/>
				</g>
			</g>
			<g id="XMLID_36_">
				<rect id="XMLID_39_" x="137.9" y="78.6" class="st22" width="47.6" height="47.6"/>
				<polyline id="XMLID_38_" class="st22" points="137.9,126.2 155.9,144.1 203.9,144.1 203.9,96.4 185.5,78.6 				"/>
				<line id="XMLID_37_" class="st22" x1="185.5" y1="126.2" x2="203.6" y2="144.3"/>
			</g>
			<g id="XMLID_79_">
				<polygon id="XMLID_145_" class="st21" points="338.1,373.3 328.7,408.3 303.1,382.7 				"/>
				<polygon id="XMLID_146_" class="st21" points="353.4,358 344,393 318.4,367.4 				"/>
			</g>
			<g id="XMLID_154_">
				<polygon id="XMLID_156_" class="st21" points="645.2,124.8 635.8,159.8 610.2,134.2 				"/>
				<polygon id="XMLID_155_" class="st21" points="660.5,109.5 651.1,144.5 625.5,118.9 				"/>
			</g>
			<g id="XMLID_149_">
				<polygon id="XMLID_152_" class="st21" points="301.5,92.6 292.1,127.5 266.5,101.9 				"/>
				<polygon id="XMLID_151_" class="st21" points="316.8,77.2 307.4,112.2 281.8,86.6 				"/>
			</g>
			<g id="XMLID_80_">
				<g id="XMLID_97_">
					<g id="XMLID_98_">
						<path id="XMLID_99_" class="st7" d="M492.6,385.7h-5.1v5.1h-4.8v-5.1h-5.1v-4.6h5.1v-5.2h4.8v5.2h5.1V385.7z"/>
					</g>
				</g>
				<g id="XMLID_93_">
					<g id="XMLID_94_">
						<path id="XMLID_95_" class="st7" d="M507.3,370.9h-5.1v5.1h-4.8v-5.1h-5.1v-4.6h5.1v-5.2h4.8v5.2h5.1V370.9z"/>
					</g>
				</g>
				<g id="XMLID_89_">
					<g id="XMLID_90_">
						<path id="XMLID_91_" class="st7" d="M522.1,356.2H517v5.1h-4.8v-5.1h-5.1v-4.6h5.1v-5.2h4.8v5.2h5.1V356.2z"/>
					</g>
				</g>
				<g id="XMLID_85_">
					<g id="XMLID_86_">
						<path id="XMLID_87_" class="st7" d="M536.8,341.5h-5.1v5.1h-4.8v-5.1h-5.1v-4.6h5.1v-5.2h4.8v5.2h5.1V341.5z"/>
					</g>
				</g>
				<g id="XMLID_81_">
					<g id="XMLID_82_">
						<path id="XMLID_83_" class="st7" d="M551.5,326.8h-5.1v5.1h-4.8v-5.1h-5.1v-4.6h5.1V317h4.8v5.2h5.1V326.8z"/>
					</g>
				</g>
			</g>
			<g id="XMLID_101_">
				<g id="XMLID_118_">
					<g id="XMLID_119_">
						<path id="XMLID_120_" class="st7" d="M57,479.6h-5.1v5.1h-4.8v-5.1H42V475h5.1v-5.2h4.8v5.2H57V479.6z"/>
					</g>
				</g>
				<g id="XMLID_114_">
					<g id="XMLID_115_">
						<path id="XMLID_116_" class="st7" d="M71.7,464.9h-5.1v5.1h-4.8v-5.1h-5.1v-4.6h5.1v-5.2h4.8v5.2h5.1V464.9z"/>
					</g>
				</g>
				<g id="XMLID_110_">
					<g id="XMLID_111_">
						<path id="XMLID_112_" class="st7" d="M86.4,450.1h-5.1v5.1h-4.8v-5.1h-5.1v-4.6h5.1v-5.2h4.8v5.2h5.1V450.1z"/>
					</g>
				</g>
				<g id="XMLID_106_">
					<g id="XMLID_107_">
						<path id="XMLID_108_" class="st7" d="M101.1,435.4H96v5.1h-4.8v-5.1h-5.1v-4.6h5.1v-5.2H96v5.2h5.1V435.4z"/>
					</g>
				</g>
				<g id="XMLID_102_">
					<g id="XMLID_103_">
						<path id="XMLID_104_" class="st7" d="M115.9,420.7h-5.1v5.1H106v-5.1h-5.1v-4.6h5.1v-5.2h4.8v5.2h5.1V420.7z"/>
					</g>
				</g>
			</g>
			<path id="XMLID_142_" class="st23" d="M523.9,256.8l-38.6,38.6c-2.8,2.8-2.8,7.3,0,10.1l0,0c2.8,2.8,7.3,2.8,10.1,0l38.6-38.6
				c2.9-2.9,2.8-7.5-0.2-10.2l0,0C530.9,254,526.6,254.1,523.9,256.8z"/>
			<path id="XMLID_159_" class="st7" d="M347,185.1l-43.2,43.2c-3,3-3,7.9,0,11l0,0c3,3,7.9,3,11,0l43.2-43.2
				c3.1-3.1,3-8.2-0.2-11.2l0,0C354.7,182.1,349.9,182.2,347,185.1z"/>
			<path id="XMLID_162_" class="st7" d="M62.5,145.8l-19,19.1c-2.9,2.9-2.9,7.6,0,10.5l0,0c2.9,2.9,7.6,2.9,10.5,0l19-19.1
				c3-3,2.9-7.8-0.2-10.7l0,0C69.9,142.9,65.3,142.9,62.5,145.8z"/>
			<path id="XMLID_264_" class="st7" d="M378.1,175c-3.4,2.9-8.5,2.6-11.5-0.8c-2.9-3.4-2.6-8.5,0.8-11.5s8.5-2.6,11.5,0.8
				C381.8,166.9,381.5,172.1,378.1,175z"/>
			<ellipse id="XMLID_254_" class="st7" cx="359.8" cy="420.8" rx="8.1" ry="8.1"/>
			<path id="XMLID_192_" class="st23" d="M493.1,420.2L467.3,446c-3.9,3.9-3.9,10.3,0,14.3l0,0c3.9,3.9,10.3,3.9,14.3,0l25.9-25.9
				c4-4,3.9-10.6-0.3-14.5l0,0C503.2,416.2,497,416.3,493.1,420.2z"/>
			<path id="XMLID_195_" class="st7" d="M714.6,422.8L671.4,466c-3,3-3,7.9,0,11l0,0c3,3,7.9,3,11,0l43.2-43.2
				c3.1-3.1,3-8.2-0.2-11.2l0,0C722.3,419.7,717.5,419.8,714.6,422.8z"/>
			<path id="XMLID_196_" class="st24" d="M339.3,121.1L197.6,262.8c-2.5,2.5-6.7,2.5-9.2,0l0,0c-2.5-2.5-2.5-6.7,0-9.2l141.7-141.7
				c2.4-2.4,6.4-2.6,8.9-0.3l0,0C341.8,114.1,341.9,118.4,339.3,121.1z"/>
		</g>
	</g>
</g>
</svg>
